<svg width="23" height="24" viewBox="0 0 23 24" fill="none"
    xmlns="http://www.w3.org/2000/svg">
    <path d="M13.3304 22.0642C13.039 22.0623 12.7602 21.9447 12.5555 21.7373C12.3508 21.5298 12.2368 21.2496 12.2388 20.9582L12.2988 11.8011C12.3001 11.6068 12.2241 11.42 12.0876 11.2817C11.9511 11.1434 11.7653 11.065 11.571 11.0637C11.3767 11.0625 11.1899 11.1384 11.0516 11.2749C10.9133 11.4114 10.8349 11.5972 10.8337 11.7915L10.8093 15.5027L10.6833 15.5077C10.2187 15.5222 9.74993 15.5133 9.48801 15.4603C9.29194 15.4195 9.05819 15.3168 8.83338 15.1894C8.72097 15.1271 8.61503 14.9725 8.61663 14.7279L8.63597 11.7771C8.63725 11.5828 8.56129 11.396 8.42481 11.2577C8.28833 11.1194 8.1025 11.041 7.90821 11.0397C7.71393 11.0385 7.52709 11.1144 7.38881 11.2509C7.25053 11.3874 7.17212 11.5732 7.17085 11.7675L7.15582 14.0604L7.00042 14.0741C6.53721 14.1062 6.14469 14.0831 5.9635 14.0086C5.79105 13.9401 5.52595 13.7025 5.25558 13.374C5.13782 13.2325 5.03763 13.0942 4.96504 12.9926L4.97797 11.0205C4.97924 10.8262 4.90328 10.6394 4.7668 10.5011C4.63032 10.3628 4.4445 10.2844 4.25021 10.2832C4.05592 10.2819 3.86909 10.3578 3.7308 10.4943C3.59252 10.6308 3.51412 10.8166 3.51285 11.0109L3.50324 12.476L3.00217 12.4728C2.79741 12.4714 2.5952 12.4272 2.40859 12.3429C2.22198 12.2586 2.05511 12.1361 1.91875 11.9834C1.78239 11.8306 1.67956 11.651 1.6169 11.456C1.55423 11.2611 1.53312 11.0552 1.55494 10.8516L1.97806 6.87635C2.03269 6.36549 2.19417 5.87183 2.45202 5.42745L4.51932 1.86301C4.5841 1.75131 4.67726 1.65871 4.78935 1.59461C4.90144 1.5305 5.02848 1.49716 5.15761 1.49797L14.3908 1.55849C14.5267 1.55939 14.6597 1.59809 14.7749 1.67026C14.8901 1.74243 14.983 1.84523 15.0431 1.96716L16.8244 5.59053L20.4646 11.7462C20.5581 11.9054 20.5903 12.0932 20.5551 12.2744C20.5199 12.4556 20.4198 12.6177 20.2735 12.7303C20.1272 12.8429 19.9448 12.8981 19.7606 12.8857C19.5765 12.8733 19.4032 12.7941 19.2733 12.6629L15.7655 9.10884C15.6638 9.00554 15.5337 8.93473 15.3918 8.90538C15.2498 8.87603 15.1024 8.88945 14.968 8.94394C14.8337 8.99844 14.7186 9.09155 14.6372 9.21151C14.5558 9.33147 14.5119 9.47287 14.5109 9.61783L14.4364 20.9726C14.4345 21.264 14.3169 21.5427 14.1095 21.7475C13.9021 21.9522 13.6218 22.0661 13.3304 22.0642ZM10.7997 16.9693L10.7736 20.9486C10.7692 21.6286 11.035 22.2825 11.5127 22.7665C11.9904 23.2505 12.6408 23.5249 13.3208 23.5293C14.0008 23.5338 14.6547 23.2679 15.1387 22.7902C15.6227 22.3126 15.8971 21.6622 15.9016 20.9822L15.9644 11.3958L18.2306 13.692C18.612 14.0762 19.1204 14.3081 19.6605 14.3441C20.2006 14.38 20.7353 14.2177 21.1642 13.8874C21.5931 13.5572 21.8868 13.0818 21.99 12.5504C22.0933 12.019 21.9991 11.4682 21.7252 11.0014L18.1154 4.89277L16.3586 1.32084C16.1784 0.954568 15.8998 0.645719 15.5539 0.428914C15.208 0.212109 14.8086 0.095919 14.4004 0.0933652L5.16721 0.0328383C4.77984 0.0304249 4.39871 0.130443 4.06244 0.322762C3.72617 0.515081 3.4467 0.792862 3.25236 1.12797L1.18507 4.69095C0.823657 5.31376 0.597463 6.00571 0.521214 6.72175L0.0980896 10.697C0.0546848 11.104 0.0970636 11.5157 0.222493 11.9054C0.347922 12.2951 0.553617 12.6542 0.826321 12.9596C1.09903 13.2649 1.43269 13.5097 1.80579 13.6782C2.1789 13.8467 2.58318 13.9352 2.99256 13.9379L3.8438 13.9435C3.93446 14.0681 4.02895 14.1899 4.12712 14.3087C4.40476 14.646 4.86888 15.1458 5.40955 15.3662C5.94145 15.5836 6.64778 15.5677 7.10512 15.5355L7.29864 15.5192C7.452 15.9195 7.7399 16.254 8.11294 16.4652C8.44873 16.6618 8.81235 16.8065 9.19143 16.8943C9.64503 16.9881 10.2736 16.9863 10.7294 16.9717L10.7997 16.9693Z" fill="black"/>
</svg>
