<svg width="50" height="50" viewBox="0 0 50 50" fill="none" xmlns="http://www.w3.org/2000/svg">
<g clip-path="url(#clip0_193_176)">
<rect width="50" height="50" rx="25" fill="white"/>
<path fill-rule="evenodd" clip-rule="evenodd" d="M100 0H0V100H100V0ZM25.1602 20.601C22.6455 20.601 20.6075 22.6388 20.6075 25.152C20.6075 27.6651 22.6455 29.703 25.1602 29.703C27.6748 29.703 29.7139 27.6651 29.7139 25.152C29.7139 22.6388 27.6748 20.601 25.1602 20.601ZM25.1602 32.1621C21.2861 32.1621 18.1458 29.0237 18.1458 25.152C18.1458 21.2803 21.2861 18.1419 25.1602 18.1419C29.0342 18.1419 32.1745 21.2803 32.1745 25.152C32.1745 29.0237 29.0342 32.1621 25.1602 32.1621ZM31.0889 18.7742C30.9089 18.5047 30.8128 18.1879 30.813 17.8639C30.8133 17.4296 30.9862 17.0132 31.2935 16.7061C31.6009 16.3991 32.0176 16.2265 32.4522 16.2263H32.4528C32.7771 16.2264 33.0939 16.3227 33.3634 16.5028C33.6329 16.6829 33.8429 16.9388 33.9669 17.2382C34.0908 17.5376 34.1232 17.867 34.0598 18.1848C33.9964 18.5026 33.8402 18.7944 33.6108 19.0234C33.3815 19.2524 33.0893 19.4084 32.7713 19.4714C32.4533 19.5345 32.1238 19.502 31.8243 19.3778C31.5248 19.2537 31.2689 19.0436 31.0889 18.7742ZM17.1047 35.7947C17.5858 35.982 18.3097 36.2038 19.6415 36.2644C21.0809 36.3306 21.5123 36.3438 25.1602 36.3438C28.8081 36.3438 29.2406 36.3306 30.6805 36.2644C32.0123 36.2039 32.7364 35.9822 33.2173 35.7947C33.855 35.5466 34.3107 35.2506 34.7885 34.7736C35.2663 34.2965 35.562 33.8417 35.8103 33.2044C35.9966 32.7236 36.2196 32.0001 36.2802 30.6691C36.3464 29.2289 36.3597 28.7978 36.3597 25.1521C36.3597 21.5064 36.3464 21.0753 36.2802 19.6351C36.2197 18.304 35.9978 17.5804 35.8103 17.0998C35.562 16.4624 35.2669 16.007 34.7885 15.5295C34.3101 15.052 33.855 14.7554 33.2173 14.5084C32.735 14.3227 32.0123 14.0993 30.6805 14.0387C29.2394 13.9736 28.8065 13.9593 25.1602 13.9593C21.5139 13.9593 21.0814 13.9725 19.6415 14.0387C18.3097 14.0992 17.5856 14.3209 17.1047 14.5084C16.4659 14.7554 16.0112 15.0514 15.5335 15.5295C15.0557 16.0077 14.76 16.4624 14.5117 17.0998C14.3259 17.5818 14.1024 18.304 14.0418 19.6351C13.9766 21.0753 13.9623 21.5064 13.9623 25.1521C13.9623 28.7978 13.9756 29.2301 14.0418 30.6691C14.1023 32.0001 14.3242 32.7238 14.5117 33.2044C14.7589 33.8417 15.055 34.2961 15.5335 34.7736C16.0119 35.2511 16.4669 35.5466 17.1047 35.7947ZM16.2127 12.2168C17.0805 11.8793 18.0741 11.6489 19.5284 11.5827C20.9856 11.5154 21.4516 11.5 25.1613 11.5C28.8709 11.5 29.3366 11.5165 30.7931 11.5827C32.2462 11.6478 33.2393 11.8793 34.1088 12.2168C35.0059 12.5653 35.7684 13.0316 36.5275 13.7915C37.2866 14.5513 37.7534 15.3122 38.1031 16.2098C38.4408 17.0771 38.6714 18.0701 38.7376 19.5235C38.8038 20.9792 38.8192 21.4445 38.8192 25.152C38.8192 28.8594 38.8038 29.3237 38.7376 30.7804C38.6725 32.2338 38.4408 33.2263 38.1031 34.0941C37.7534 34.9918 37.2878 35.7539 36.5275 36.5125C35.7672 37.2711 35.0059 37.7377 34.1077 38.0872C33.2393 38.4247 32.2463 38.6551 30.792 38.7213C29.3355 38.7886 28.8698 38.804 25.1602 38.804C21.4505 38.804 20.9856 38.7875 19.5284 38.7213C18.0741 38.6551 17.0821 38.4247 16.2127 38.0872C15.3139 37.7377 14.553 37.2708 13.7928 36.5125C13.0327 35.7542 12.5659 34.9918 12.2172 34.0941C11.8795 33.2263 11.649 32.2339 11.5827 30.7804C11.5154 29.3248 11.5 28.8594 11.5 25.152C11.5 21.4445 11.5154 20.9792 11.5827 19.5235C11.649 18.0702 11.8795 17.0777 12.2172 16.2098C12.5659 15.3116 13.0326 14.5501 13.7928 13.7915C14.5531 13.0328 15.3139 12.5653 16.2127 12.2168Z" fill="url(#paint0_linear_193_176)"/>
</g>
<defs>
<linearGradient id="paint0_linear_193_176" x1="98.078" y1="100" x2="-1.922" y2="-2.69172e-06" gradientUnits="userSpaceOnUse">
<stop stop-color="#FBE18A"/>
<stop offset="0.21" stop-color="#FCBB45"/>
<stop offset="0.38" stop-color="#F75274"/>
<stop offset="0.52" stop-color="#D53692"/>
<stop offset="0.74" stop-color="#8F39CE"/>
<stop offset="1" stop-color="#5B4FE9"/>
</linearGradient>
<clipPath id="clip0_193_176">
<rect width="50" height="50" rx="25" fill="white"/>
</clipPath>
</defs>
</svg>
