<svg width="52" height="52" viewBox="0 0 52 52" fill="none" xmlns="http://www.w3.org/2000/svg">
<g clip-path="url(#clip0_193_172)">
<rect width="52" height="52" rx="26" fill="white"/>
<path fill-rule="evenodd" clip-rule="evenodd" d="M100 0H0V100H100V0ZM26.1666 40.3732C34.0126 40.3732 40.3732 34.0126 40.3732 26.1666C40.3732 18.3205 34.0126 11.96 26.1666 11.96C18.3205 11.96 11.96 18.3205 11.96 26.1666C11.96 34.0126 18.3205 40.3732 26.1666 40.3732ZM17.3586 27.1626C17.3586 27.1626 16.3824 26.5301 18.0501 25.8554C18.0501 25.8554 25.0873 22.8616 27.528 21.8073C28.4636 21.3857 31.6364 20.0363 31.6364 20.0363C31.6364 20.0363 33.1008 19.446 32.9788 20.8796C32.9494 21.306 32.7715 22.502 32.5524 23.9754C32.4681 24.5422 32.3777 25.1501 32.2873 25.7711C31.7991 28.9337 31.2703 32.3914 31.2703 32.3914C31.2703 32.3914 31.1889 33.3613 30.4974 33.5299C29.8059 33.6986 28.6669 32.9396 28.4636 32.7709C28.4283 32.7435 28.2648 32.6327 28.0196 32.4667L28.0193 32.4664L28.0192 32.4664C27.1337 31.8666 25.1833 30.5456 24.3551 29.8192C24.0704 29.5662 23.745 29.0602 24.3958 28.4698C25.8602 27.0783 27.6093 25.3494 28.6669 24.2531C29.1551 23.747 29.6432 22.5664 27.6093 24C24.7212 26.0663 21.8738 28.006 21.8738 28.006C21.8738 28.006 21.223 28.4276 20.0026 28.0481C18.7823 27.6687 17.3586 27.1626 17.3586 27.1626Z" fill="#34AADF"/>
</g>
<defs>
<clipPath id="clip0_193_172">
<rect width="52" height="52" rx="26" fill="white"/>
</clipPath>
</defs>
</svg>
