<svg width="55" height="55" viewBox="0 0 55 55" fill="none" xmlns="http://www.w3.org/2000/svg">
<path fill-rule="evenodd" clip-rule="evenodd" d="M28.4771 0.0394792C40.7752 0.0972555 46.2969 4.10858 47.667 5.36315C52.1984 9.30019 54.7158 18.0327 53.0237 31.8247C51.5353 44.0107 43.0354 46.1726 40.1839 46.8978C39.9047 46.9688 39.6796 47.0261 39.5206 47.0776C38.753 47.3252 31.9602 49.0255 23.1369 48.2827C22.163 49.4134 20.8671 50.8991 19.9344 51.9061C19.6527 52.2096 19.3889 52.5094 19.1368 52.7958C17.8602 54.2461 16.8836 55.3557 15.3949 54.8939C13.9175 54.44 14 52.195 14 52.195L14.0082 46.6567H14C1.09112 43.025 1.28095 29.6457 1.42952 22.4979C1.56984 15.3502 2.95647 9.58907 6.89351 5.65203C13.967 -0.835419 28.4771 0.0394792 28.4771 0.0394792Z" fill="#665CAC"/>
<path d="M38.7195 43.0401C41.143 42.4777 47.9111 40.907 49.1609 30.8343C50.5888 19.312 48.6327 11.4462 44.803 8.15295C43.6474 7.10472 38.6622 3.97655 28.2542 3.92702C28.2542 3.92702 15.9313 3.11816 9.94735 8.53262C6.62109 11.8176 5.49858 16.7038 5.37477 22.6713L5.36128 23.2792C5.2216 29.3818 4.97542 40.1371 15.5269 43.0663C15.5269 43.0663 15.4856 51.5264 15.4774 52.2693C15.4774 52.7892 15.5599 53.1442 15.857 53.2184C16.0716 53.2762 16.3935 53.1607 16.6659 52.8883C18.4074 51.1302 23.9952 44.3952 23.9952 44.3952C31.4897 44.8904 37.4489 43.4047 38.0927 43.1984C38.2409 43.1511 38.4542 43.1016 38.7195 43.0401Z" fill="white"/>
<path d="M34.2313 22.159C34.2499 22.5427 33.9538 22.8688 33.5701 22.8874C33.1864 22.9059 32.8602 22.6099 32.8417 22.2262C32.7268 19.8488 31.6224 18.7083 29.3397 18.587C28.9561 18.5666 28.6616 18.2391 28.682 17.8555C28.7023 17.4718 29.0299 17.1773 29.4135 17.1977C32.4174 17.3573 34.0823 19.0767 34.2313 22.159Z" fill="#665CAC"/>
<path d="M37.0863 24.0848C37.4704 24.0936 37.7889 23.7893 37.7976 23.4052C37.8594 20.6862 37.0451 18.3904 35.3531 16.5471C33.6581 14.7004 31.3203 13.6779 28.3612 13.4678C27.9779 13.4406 27.6452 13.7292 27.618 14.1124C27.5908 14.4956 27.8794 14.8283 28.2626 14.8556C30.8837 15.0417 32.8871 15.9179 34.3281 17.4879C35.7704 19.0592 36.4605 21.0047 36.4067 23.3736C36.398 23.7577 36.7022 24.0761 37.0863 24.0848Z" fill="#665CAC"/>
<path d="M41.4542 24.8121C41.457 25.1962 41.1479 25.51 40.7638 25.5129C40.3796 25.5158 40.0658 25.2066 40.0629 24.8225C40.0313 20.5892 38.7819 17.2987 36.3195 14.8909C33.8485 12.4827 30.7768 11.2658 27.0859 11.2421C26.7017 11.2397 26.3923 10.9263 26.3947 10.5421C26.3972 10.1579 26.7106 9.84845 27.0948 9.85091C31.1395 9.87678 34.5574 11.2309 37.2913 13.8954C40.035 16.5781 41.4199 20.2256 41.4542 24.8121Z" fill="#665CAC"/>
<path d="M31.0191 30.9415C30.4991 31.5936 29.5169 31.5111 29.5169 31.5111C22.3692 29.687 20.4543 22.4484 20.4543 22.4484C20.4543 22.4484 20.3718 21.4745 21.0238 20.9463L22.3114 19.9228C22.9552 19.4276 23.3596 18.2308 22.7076 17.0587C22.3444 16.4067 21.6181 15.2429 21.0816 14.5083C20.5121 13.7325 19.1915 12.1478 19.1832 12.1395C18.5477 11.3802 17.6068 11.2068 16.6163 11.7186C16.6163 11.7186 16.6081 11.7268 16.5998 11.7268C15.6589 12.2551 14.784 12.9649 13.9669 13.8645L13.9504 13.881C13.3396 14.6156 12.9847 15.342 12.9021 16.0518C12.8856 16.1343 12.8774 16.2416 12.8856 16.3654C12.8774 16.6791 12.9269 16.9845 13.0259 17.2898L13.059 17.3146C13.3643 18.4124 14.1402 20.2364 15.8157 23.2821C16.9052 25.2547 18.0195 26.9055 19.1255 28.2921C19.7032 29.0267 20.3635 29.7778 21.1229 30.5454L21.42 30.8425C22.1876 31.6019 22.9387 32.2621 23.6733 32.8399C25.0599 33.9459 26.7024 35.0602 28.6833 36.1497C31.7289 37.8252 33.553 38.601 34.6508 38.9064L34.6755 38.9394C34.9809 39.0385 35.2863 39.0798 35.6 39.0798C35.7238 39.088 35.8311 39.0798 35.9136 39.0632C36.6234 38.9807 37.3498 38.6258 38.0843 38.015L38.1008 37.9985C39.0005 37.1814 39.7103 36.2982 40.2386 35.3656C40.2386 35.3656 40.2468 35.3573 40.2468 35.3491C40.7586 34.3586 40.5852 33.4177 39.8259 32.7821C39.8259 32.7821 38.2329 31.4533 37.4571 30.8838C36.7307 30.3473 35.5587 29.6292 34.9066 29.2578C33.7346 28.6057 32.5378 29.0102 32.0426 29.654L31.0191 30.9415Z" fill="#665CAC"/>
</svg>
