<svg width="55" height="55" viewBox="0 0 55 55" fill="none" xmlns="http://www.w3.org/2000/svg">
<g clip-path="url(#clip0_193_180)">
<rect width="55" height="55" rx="27.5" fill="white"/>
<path fill-rule="evenodd" clip-rule="evenodd" d="M100 0H0V100H100V0ZM15.7231 33.9202L13.75 41.25L21.1606 39.2742C24.0436 40.8243 27.3903 41.2854 30.5866 40.5729C33.7829 39.8604 36.6144 38.0221 38.5615 35.3953C40.5086 32.7685 41.4407 29.5294 41.1868 26.2725C40.9329 23.0155 39.51 19.9591 37.1792 17.6641C34.8484 15.3691 31.766 13.9895 28.4977 13.7784C25.2294 13.5673 21.9944 14.5389 19.3864 16.5149C16.7783 18.4909 14.9721 21.3387 14.2992 24.5358C13.6263 27.7329 14.1318 31.0649 15.7231 33.9202ZM21.9763 36.8025L21.518 36.5313L17.3776 37.6316L18.4807 33.5405L18.1933 33.0679C17.14 31.3571 16.5833 29.3883 16.5853 27.3807C16.5817 24.9595 17.3812 22.605 18.8592 20.6843C20.3372 18.7635 22.4106 17.3844 24.7565 16.7619C27.1023 16.1393 29.5887 16.3082 31.8282 17.2423C34.0677 18.1764 35.9346 19.8232 37.1378 21.9261C38.341 24.029 38.8131 26.4699 38.4803 28.8683C38.1476 31.2667 37.0288 33.4879 35.2983 35.1859C33.5678 36.8839 31.3228 37.9632 28.9131 38.2556C26.5034 38.548 24.0645 38.0371 21.9763 36.8025ZM31.7217 28.818C32.0582 28.8945 32.3728 29.0467 32.6415 29.2628C32.7197 29.3087 32.8053 29.3562 32.8947 29.4058C33.4093 29.691 34.0526 30.0477 34.1718 30.5955C34.23 30.91 34.1893 31.2348 34.0552 31.5253C33.827 32.0062 33.4838 32.4238 33.0557 32.7413C32.6277 33.0588 32.128 33.2665 31.6006 33.3461C30.6749 33.4509 29.738 33.3036 28.8895 32.92C28.0727 32.641 27.2908 32.2692 26.5592 31.812C25.1012 30.9122 23.8322 29.7385 22.8228 28.3563C22.5121 27.9355 22.2243 27.4983 21.9605 27.0468C21.5949 26.4574 21.3175 25.8179 21.1371 25.1485C21.0661 24.8699 21.0296 24.5837 21.0284 24.2962C21.0105 23.7843 21.1081 23.2749 21.3137 22.8056C21.5194 22.3363 21.8281 21.919 22.2169 21.5844C22.4408 21.3855 22.7177 21.2556 23.014 21.2102C23.3104 21.1649 23.6135 21.206 23.887 21.3287C24.4171 21.7754 24.808 22.3643 25.0133 23.0255C25.279 23.4972 25.403 24.0351 25.3707 24.5752C25.2249 25.0648 24.9577 25.5098 24.5939 25.8691C24.4899 25.9578 24.4245 26.0833 24.4115 26.2192C24.3984 26.355 24.4388 26.4906 24.5239 26.5974C25.5226 28.3088 27.0721 29.6332 28.9206 30.3553C29.0235 30.4115 29.1433 30.4284 29.2577 30.4027C29.3722 30.377 29.4732 30.3106 29.542 30.2159C29.6443 30.092 29.7466 29.9293 29.8544 29.7578C30.0904 29.3823 30.3528 28.9648 30.6995 28.8212C31.0355 28.7426 31.3851 28.7415 31.7217 28.818Z" fill="#00D95F"/>
</g>
<defs>
<clipPath id="clip0_193_180">
<rect width="55" height="55" rx="27.5" fill="white"/>
</clipPath>
</defs>
</svg>
